<svg xmlns="http://www.w3.org/2000/svg" aria-hidden="true" style="position:absolute;width:0;height:0;overflow:hidden"><defs><symbol id="icon-facebook" viewBox="0 0 32 32"><path fill="#fff" d="M13.912 11.099v2.203h-1.613v2.693h1.613V24h3.315v-8.005h2.224s.21-1.291.31-2.704h-2.522v-1.84c0-.277.362-.646.72-.646h1.805V8h-2.456c-3.478 0-3.397 2.696-3.397 3.099z" style="fill:var(--color1, #fff)"/><path fill="#fff" d="M6.4 3.2a3.2 3.2 0 0 0-3.2 3.2v19.2a3.2 3.2 0 0 0 3.2 3.2h19.2a3.2 3.2 0 0 0 3.2-3.2V6.4a3.2 3.2 0 0 0-3.2-3.2H6.4zm0-3.2h19.2A6.4 6.4 0 0 1 32 6.4v19.2a6.4 6.4 0 0 1-6.401 6.4h-19.2a6.403 6.403 0 0 1-6.4-6.401v-19.2a6.402 6.402 0 0 1 6.4-6.4z" style="fill:var(--color1, #fff)"/></symbol><symbol id="icon-instagram" viewBox="0 0 32 32"><path fill="#fff" d="M16 0c-4.342 0-4.888.02-6.594.096C7.7.176 6.538.444 5.52.84a7.842 7.842 0 0 0-2.834 1.846A7.842 7.842 0 0 0 .84 5.52C.444 6.536.174 7.7.096 9.4.02 11.11 0 11.654 0 16.002c0 4.344.02 4.888.096 6.594.08 1.704.348 2.866.744 3.884a7.858 7.858 0 0 0 1.846 2.834 7.808 7.808 0 0 0 2.832 1.846c1.02.396 2.18.666 3.884.744C11.11 31.98 11.654 32 16 32s4.888-.02 6.596-.096c1.702-.08 2.868-.348 3.886-.744a7.834 7.834 0 0 0 2.832-1.846 7.858 7.858 0 0 0 1.846-2.834c.394-1.018.664-2.18.744-3.884C31.98 20.89 32 20.346 32 16s-.02-4.89-.096-6.598c-.08-1.702-.35-2.866-.744-3.882a7.842 7.842 0 0 0-1.846-2.834A7.816 7.816 0 0 0 26.48.84C25.46.444 24.296.174 22.594.096 20.886.02 20.344 0 15.996 0H16zm-1.434 2.884h1.436c4.272 0 4.778.014 6.464.092 1.56.07 2.408.332 2.972.55.746.29 1.28.638 1.84 1.198s.906 1.092 1.196 1.84c.22.562.48 1.41.55 2.97.078 1.686.094 2.192.094 6.462s-.016 4.778-.094 6.464c-.07 1.56-.332 2.406-.55 2.97a4.931 4.931 0 0 1-1.198 1.838c-.56.56-1.092.906-1.84 1.196-.56.22-1.408.48-2.97.552-1.686.076-2.192.094-6.464.094s-4.78-.018-6.466-.094c-1.56-.072-2.406-.332-2.97-.552a4.954 4.954 0 0 1-1.84-1.196 4.964 4.964 0 0 1-1.2-1.84c-.218-.562-.48-1.41-.55-2.97-.076-1.686-.092-2.192-.092-6.466 0-4.272.016-4.776.092-6.462.072-1.56.332-2.408.552-2.972.29-.746.638-1.28 1.198-1.84s1.092-.906 1.84-1.196c.564-.22 1.41-.48 2.97-.552 1.476-.068 2.048-.088 5.03-.09v.004zm9.976 2.656a1.931 1.931 0 0 0-1.358.562 1.913 1.913 0 0 0-.562 1.358 1.931 1.931 0 0 0 .562 1.358 1.913 1.913 0 0 0 1.358.562 1.921 1.921 0 1 0 0-3.84zm-8.54 2.244a8.223 8.223 0 0 0-5.894 2.361 8.212 8.212 0 0 0-2.453 5.856 8.224 8.224 0 0 0 5.163 7.63 8.221 8.221 0 0 0 11.274-7.628 8.215 8.215 0 0 0-8.09-8.216zm0 2.882A5.336 5.336 0 0 1 21.336 16a5.336 5.336 0 0 1-5.334 5.334A5.336 5.336 0 0 1 10.668 16a5.336 5.336 0 0 1 5.334-5.334z" style="fill:var(--color1, #fff)"/></symbol><symbol id="icon-telegram" viewBox="0 0 32 32"><path fill="none" stroke="#fff" stroke-linecap="round" stroke-linejoin="round" stroke-width="3" d="M29.333 2.667 14.666 17.334M29.333 2.667 20 29.334l-5.333-12-12-5.333 26.667-9.333z" style="stroke:var(--color1, #fff)"/></symbol></defs></svg>